<?xml version="1.0" standalone="no"?>
<!DOCTYPE svg PUBLIC "-//W3C//DTD SVG 20010904//EN"
 "http://www.w3.org/TR/2001/REC-SVG-20010904/DTD/svg10.dtd">
<svg version="1.0" xmlns="http://www.w3.org/2000/svg"
 width="700.000000pt" height="700.000000pt" viewBox="0 0 700.000000 700.000000"
 preserveAspectRatio="xMidYMid meet">
<metadata>
Created by potrace 1.11, written by Peter Selinger 2001-2013
</metadata>
<g transform="translate(0.000000,700.000000) scale(0.100000,-0.100000)"
fill="#000000" stroke="none">
<path d="M4109 6948 c0 -29 0 -131 0 -225 0 -171 0 -173 -22 -174 -12 -1 -114
-2 -227 -3 l-205 -1 -3 -457 -2 -458 -533 0 -532 0 0 -757 0 -758 -1293 -3
-1292 -2 0 -2055 0 -2055 2435 0 2435 0 0 455 0 455 1065 0 1065 0 0 2360 0
2360 -530 0 c-498 0 -530 1 -531 18 0 9 -1 214 -1 455 -1 313 -4 437 -12 438
-6 1 -108 2 -226 3 l-215 1 -3 228 -2 227 -685 0 -685 0 -1 -52z m1127 -408
l241 0 -1 -455 0 -455 -683 0 -683 0 0 454 0 455 38 3 c20 2 219 2 442 1 223
-2 513 -3 646 -3z"/>
</g>
</svg>
