<svg width="17" height="16" viewBox="0 0 17 16" fill="none" xmlns="http://www.w3.org/2000/svg">
<path d="M15.4688 9.69336C15.3906 10.0645 15.166 10.25 14.7949 10.25H6.21094L6.38672 11.1875H14.2676C14.4824 11.1875 14.6582 11.2754 14.7949 11.4512C14.9316 11.627 14.9805 11.8223 14.9414 12.0371L14.7656 12.7695C15.3906 13.0625 15.7031 13.5508 15.7031 14.2344C15.7031 14.6836 15.5371 15.0645 15.2051 15.377C14.8926 15.709 14.5117 15.875 14.0625 15.875C13.6133 15.875 13.2227 15.709 12.8906 15.377C12.5781 15.0645 12.4219 14.6836 12.4219 14.2344C12.4219 13.7656 12.5879 13.375 12.9199 13.0625H6.76758C7.09961 13.375 7.26562 13.7656 7.26562 14.2344C7.26562 14.6836 7.09961 15.0645 6.76758 15.377C6.45508 15.709 6.07422 15.875 5.625 15.875C5.17578 15.875 4.78516 15.709 4.45312 15.377C4.14062 15.0645 3.98438 14.6836 3.98438 14.2344C3.98438 13.6094 4.25781 13.1309 4.80469 12.7988L2.75391 2.75H0.703125C0.507812 2.75 0.341797 2.68164 0.205078 2.54492C0.0683594 2.4082 0 2.24219 0 2.04688V1.57812C0 1.38281 0.0683594 1.2168 0.205078 1.08008C0.341797 0.943359 0.507812 0.875 0.703125 0.875H3.7207C3.87695 0.875 4.01367 0.933594 4.13086 1.05078C4.26758 1.14844 4.35547 1.27539 4.39453 1.43164L4.6582 2.75H16.1719C16.4062 2.75 16.5918 2.83789 16.7285 3.01367C16.8652 3.18945 16.9043 3.38477 16.8457 3.59961L15.4688 9.69336Z" fill="black"/>
</svg>
