<svg width="16" height="14" viewBox="0 0 16 14" fill="none" xmlns="http://www.w3.org/2000/svg">
<path d="M13.5645 1.7207C14.4824 2.50195 14.9707 3.49805 15.0293 4.70898C15.0879 5.91992 14.6973 6.94531 13.8574 7.78516L8.20312 13.6445C8.00781 13.8398 7.7832 13.9375 7.5293 13.9375C7.27539 13.9375 7.05078 13.8398 6.85547 13.6445L1.20117 7.78516C0.361328 6.94531 -0.0292969 5.91992 0.0292969 4.70898C0.0878906 3.49805 0.576172 2.50195 1.49414 1.7207C2.29492 1.03711 3.21289 0.744141 4.24805 0.841797C5.30273 0.919922 6.20117 1.33984 6.94336 2.10156L7.5293 2.6875L8.11523 2.10156C8.85742 1.33984 9.74609 0.919922 10.7812 0.841797C11.8359 0.744141 12.7637 1.03711 13.5645 1.7207Z" fill="black"/>
</svg>
