<svg width="15" height="15" viewBox="0 0 15 15" fill="none" xmlns="http://www.w3.org/2000/svg">
<path d="M14.2969 7.55078C14.2969 9.62109 13.6426 11.3203 12.334 12.6484C11.0449 13.9766 9.35547 14.6406 7.26562 14.6406C5.25391 14.6406 3.53516 13.9375 2.10938 12.5312C0.703125 11.1055 0 9.38672 0 7.375C0 5.36328 0.703125 3.6543 2.10938 2.24805C3.53516 0.822266 5.25391 0.109375 7.26562 0.109375C9.16016 0.109375 10.7812 0.744141 12.1289 2.01367L10.166 3.91797C9.54102 3.3125 8.78906 2.96094 7.91016 2.86328C7.05078 2.74609 6.24023 2.85352 5.47852 3.18555C4.73633 3.49805 4.0918 4.03516 3.54492 4.79688C3.01758 5.53906 2.75391 6.39844 2.75391 7.375C2.75391 8.64453 3.19336 9.72852 4.07227 10.627C4.95117 11.5254 6.01562 11.9746 7.26562 11.9746C7.94922 11.9746 8.55469 11.8672 9.08203 11.6523C9.62891 11.418 10.0488 11.1348 10.3418 10.8027C10.6543 10.4512 10.8887 10.1094 11.0449 9.77734C11.2207 9.44531 11.3379 9.13281 11.3965 8.83984H7.26562V6.32031H14.1797C14.2578 6.75 14.2969 7.16016 14.2969 7.55078Z" fill="black"/>
</svg>
