<svg width="14" height="16" viewBox="0 0 14 16" fill="none" xmlns="http://www.w3.org/2000/svg">
<path d="M9.19922 7.29102C8.47656 8.01367 7.59766 8.375 6.5625 8.375C5.52734 8.375 4.63867 8.01367 3.89648 7.29102C3.17383 6.54883 2.8125 5.66016 2.8125 4.625C2.8125 3.58984 3.17383 2.71094 3.89648 1.98828C4.63867 1.24609 5.52734 0.875 6.5625 0.875C7.59766 0.875 8.47656 1.24609 9.19922 1.98828C9.94141 2.71094 10.3125 3.58984 10.3125 4.625C10.3125 5.66016 9.94141 6.54883 9.19922 7.29102ZM9.19922 9.3125C10.2734 9.3125 11.1914 9.70312 11.9531 10.4844C12.7344 11.2461 13.125 12.1641 13.125 13.2383V14.4688C13.125 14.8594 12.9883 15.1914 12.7148 15.4648C12.4414 15.7383 12.1094 15.875 11.7188 15.875H1.40625C1.01562 15.875 0.683594 15.7383 0.410156 15.4648C0.136719 15.1914 0 14.8594 0 14.4688V13.2383C0 12.1641 0.380859 11.2461 1.14258 10.4844C1.92383 9.70312 2.85156 9.3125 3.92578 9.3125H4.42383C5.10742 9.625 5.82031 9.78125 6.5625 9.78125C7.30469 9.78125 8.01758 9.625 8.70117 9.3125H9.19922Z" fill="black"/>
</svg>
