<svg width="36" height="35" viewBox="0 0 36 35" fill="none" xmlns="http://www.w3.org/2000/svg">
<rect width="36" height="35" fill="white"/>
<path d="M24.7812 15.9453C24.9271 16.0729 25 16.237 25 16.4375C25 16.638 24.9271 16.8021 24.7812 16.9297L19.9688 21.0859C19.75 21.2682 19.513 21.3047 19.2578 21.1953C19.0026 21.0677 18.875 20.8672 18.875 20.5938V18.1875C17.9818 18.2057 17.2253 18.2695 16.6055 18.3789C15.9857 18.4701 15.4479 18.6341 14.9922 18.8711C14.5365 19.0898 14.1992 19.3906 13.9805 19.7734C13.7799 20.1562 13.6797 20.6393 13.6797 21.2227C13.6797 21.806 13.7982 22.4896 14.0352 23.2734C14.1081 23.4922 14.0443 23.6654 13.8438 23.793C13.6615 23.9206 13.4701 23.9115 13.2695 23.7656C12.6315 23.3099 12.0938 22.6992 11.6562 21.9336C11.2188 21.1497 11 20.3568 11 19.5547C11 18.7526 11.1367 18.0508 11.4102 17.4492C11.6836 16.8477 12.0482 16.3646 12.5039 16C12.9596 15.6172 13.5339 15.3164 14.2266 15.0977C14.9193 14.8607 15.6302 14.7057 16.3594 14.6328C17.0885 14.5417 17.9271 14.487 18.875 14.4688V12.2812C18.875 12.0078 19.0026 11.8164 19.2578 11.707C19.513 11.5794 19.75 11.6068 19.9688 11.7891L24.7812 15.9453Z" fill="#939191"/>
</svg>
