<svg width="267" height="25" viewBox="0 0 267 25" fill="none" xmlns="http://www.w3.org/2000/svg">
<path d="M8.86869 19.312C7.06603 19.312 5.54069 18.9133 4.29269 18.116C3.06203 17.3187 2.13469 16.2093 1.51069 14.788C0.904027 13.3667 0.600694 11.7287 0.600694 9.874C0.600694 8.01933 0.904027 6.38133 1.51069 4.96C2.13469 3.53867 3.06203 2.42933 4.29269 1.632C5.54069 0.834665 7.06603 0.435999 8.86869 0.435999C9.96069 0.435999 10.966 0.574666 11.8847 0.852C12.8207 1.112 13.566 1.49333 14.1207 1.996C14.6927 2.48133 14.9787 3.04467 14.9787 3.686C14.9787 4.37933 14.658 4.82133 14.0167 5.012C13.462 4.19733 12.7254 3.556 11.8067 3.088C10.9054 2.60267 9.90869 2.36 8.81669 2.36C6.91003 2.36 5.46269 3.062 4.47469 4.466C3.48669 5.87 2.99269 7.67267 2.99269 9.874C2.99269 12.0753 3.48669 13.878 4.47469 15.282C5.46269 16.686 6.91003 17.388 8.81669 17.388C9.90869 17.388 10.9054 17.154 11.8067 16.686C12.7254 16.2007 13.462 15.5507 14.0167 14.736C14.658 14.9267 14.9787 15.3687 14.9787 16.062C14.9787 16.7033 14.6927 17.2753 14.1207 17.778C13.566 18.2633 12.8207 18.6447 11.8847 18.922C10.966 19.182 9.96069 19.312 8.86869 19.312ZM26.7965 19.312C25.6005 19.312 24.5518 19.0347 23.6505 18.48C22.7665 17.908 22.0818 17.102 21.5965 16.062C21.1112 15.0047 20.8685 13.774 20.8685 12.37C20.8685 10.966 21.1112 9.744 21.5965 8.704C22.0818 7.64667 22.7665 6.84067 23.6505 6.286C24.5518 5.714 25.6005 5.428 26.7965 5.428C27.9925 5.428 29.0325 5.714 29.9165 6.286C30.8178 6.84067 31.5112 7.64667 31.9965 8.704C32.4818 9.744 32.7245 10.966 32.7245 12.37C32.7245 13.774 32.4818 15.0047 31.9965 16.062C31.5112 17.102 30.8178 17.908 29.9165 18.48C29.0325 19.0347 27.9925 19.312 26.7965 19.312ZM26.7965 17.44C27.9405 17.44 28.8505 16.9807 29.5265 16.062C30.2025 15.1433 30.5405 13.9127 30.5405 12.37C30.5405 10.8273 30.2025 9.59667 29.5265 8.678C28.8505 7.75933 27.9405 7.3 26.7965 7.3C25.6525 7.3 24.7425 7.75933 24.0665 8.678C23.3905 9.59667 23.0525 10.8273 23.0525 12.37C23.0525 13.9127 23.3905 15.1433 24.0665 16.062C24.7425 16.9807 25.6525 17.44 26.7965 17.44ZM52.8828 5.428C54.1135 5.428 55.1015 5.85267 55.8468 6.702C56.6095 7.55133 56.9908 8.76467 56.9908 10.342V17.57C56.9908 18.0553 56.8695 18.4453 56.6268 18.74C56.3842 19.0173 56.0375 19.156 55.5868 19.156C55.3268 19.156 55.0842 19.1213 54.8588 19.052V10.186C54.8588 9.25 54.6335 8.522 54.1828 8.002C53.7322 7.46467 53.0908 7.196 52.2588 7.196C51.3228 7.196 50.5862 7.716 50.0488 8.756C49.5115 9.77867 49.2428 11.148 49.2428 12.864V17.57C49.2428 18.0553 49.1215 18.4453 48.8788 18.74C48.6362 19.0173 48.2895 19.156 47.8388 19.156C47.5788 19.156 47.3362 19.1213 47.1108 19.052V10.186C47.1108 9.25 46.8855 8.522 46.4348 8.002C45.9842 7.46467 45.3428 7.196 44.5108 7.196C43.5748 7.196 42.8382 7.716 42.3008 8.756C41.7635 9.77867 41.4948 11.148 41.4948 12.864V17.57C41.4948 18.0553 41.3735 18.4453 41.1308 18.74C40.8882 19.0173 40.5415 19.156 40.0908 19.156C39.8308 19.156 39.5882 19.1213 39.3628 19.052V7.17C39.3628 6.68467 39.4842 6.30333 39.7268 6.026C39.9695 5.73133 40.3162 5.584 40.7668 5.584C41.0268 5.584 41.2695 5.61867 41.4948 5.688V8.418C42.0495 6.42467 43.2542 5.428 45.1088 5.428C46.0795 5.428 46.9028 5.688 47.5788 6.208C48.2722 6.71067 48.7488 7.456 49.0088 8.444C49.7195 6.43333 51.0108 5.428 52.8828 5.428ZM77.7524 5.428C78.9831 5.428 79.9711 5.85267 80.7164 6.702C81.4791 7.55133 81.8604 8.76467 81.8604 10.342V17.57C81.8604 18.0553 81.7391 18.4453 81.4964 18.74C81.2538 19.0173 80.9071 19.156 80.4564 19.156C80.1964 19.156 79.9538 19.1213 79.7284 19.052V10.186C79.7284 9.25 79.5031 8.522 79.0524 8.002C78.6018 7.46467 77.9604 7.196 77.1284 7.196C76.1924 7.196 75.4558 7.716 74.9184 8.756C74.3811 9.77867 74.1124 11.148 74.1124 12.864V17.57C74.1124 18.0553 73.9911 18.4453 73.7484 18.74C73.5058 19.0173 73.1591 19.156 72.7084 19.156C72.4484 19.156 72.2058 19.1213 71.9804 19.052V10.186C71.9804 9.25 71.7551 8.522 71.3044 8.002C70.8538 7.46467 70.2124 7.196 69.3804 7.196C68.4444 7.196 67.7078 7.716 67.1704 8.756C66.6331 9.77867 66.3644 11.148 66.3644 12.864V17.57C66.3644 18.0553 66.2431 18.4453 66.0004 18.74C65.7578 19.0173 65.4111 19.156 64.9604 19.156C64.7004 19.156 64.4578 19.1213 64.2324 19.052V7.17C64.2324 6.68467 64.3538 6.30333 64.5964 6.026C64.8391 5.73133 65.1858 5.584 65.6364 5.584C65.8964 5.584 66.1391 5.61867 66.3644 5.688V8.418C66.9191 6.42467 68.1238 5.428 69.9784 5.428C70.9491 5.428 71.7724 5.688 72.4484 6.208C73.1418 6.71067 73.6184 7.456 73.8784 8.444C74.5891 6.43333 75.8804 5.428 77.7524 5.428ZM94.1721 19.312C92.9761 19.312 91.9187 19.0347 91.0001 18.48C90.0814 17.9253 89.3707 17.128 88.8681 16.088C88.3654 15.048 88.1141 13.8347 88.1141 12.448C88.1141 11.044 88.3654 9.81333 88.8681 8.756C89.3881 7.69867 90.0987 6.884 91.0001 6.312C91.9187 5.72267 92.9761 5.428 94.1721 5.428C95.8707 5.428 97.1967 6.00867 98.1501 7.17C99.1207 8.314 99.6061 9.874 99.6061 11.85C99.6061 12.3353 99.5367 12.6647 99.3981 12.838C99.2767 13.0113 99.0167 13.098 98.6181 13.098H90.2461C90.2461 14.4673 90.5927 15.5593 91.2861 16.374C91.9967 17.1887 92.9414 17.596 94.1201 17.596C94.9867 17.596 95.7667 17.4053 96.4601 17.024C97.1707 16.6427 97.7341 16.14 98.1501 15.516C98.6701 15.7067 98.9301 16.0967 98.9301 16.686C98.9301 17.154 98.6961 17.5873 98.2281 17.986C97.7601 18.3847 97.1534 18.7053 96.4081 18.948C95.6801 19.1907 94.9347 19.312 94.1721 19.312ZM97.4741 11.356C97.4394 9.952 97.1621 8.89467 96.6421 8.184C96.1221 7.456 95.3334 7.092 94.2761 7.092C93.1667 7.092 92.2741 7.47333 91.5981 8.236C90.9221 8.99867 90.4887 10.108 90.2981 11.564L97.4741 11.356ZM106.905 19.156C106.645 19.156 106.402 19.1213 106.177 19.052V7.17C106.177 6.68467 106.298 6.30333 106.541 6.026C106.783 5.73133 107.13 5.584 107.581 5.584C107.841 5.584 108.083 5.61867 108.309 5.688V9.25C108.673 8.002 109.193 7.066 109.869 6.442C110.545 5.818 111.325 5.506 112.209 5.506C113.179 5.506 113.665 5.93933 113.665 6.806C113.665 7.30867 113.491 7.69 113.145 7.95C112.971 7.86333 112.711 7.82 112.365 7.82C111.047 7.82 110.042 8.40067 109.349 9.562C108.655 10.706 108.309 12.5693 108.309 15.152V17.57C108.309 18.0553 108.187 18.4453 107.945 18.74C107.702 19.0173 107.355 19.156 106.905 19.156ZM124.107 19.312C122.876 19.312 121.801 19.0347 120.883 18.48C119.964 17.908 119.262 17.102 118.777 16.062C118.291 15.0047 118.049 13.774 118.049 12.37C118.049 10.966 118.291 9.744 118.777 8.704C119.262 7.64667 119.964 6.84067 120.883 6.286C121.801 5.714 122.876 5.428 124.107 5.428C124.956 5.428 125.745 5.558 126.473 5.818C127.218 6.06067 127.816 6.39867 128.267 6.832C128.717 7.26533 128.943 7.742 128.943 8.262C128.943 8.834 128.674 9.20667 128.137 9.38C127.703 8.72133 127.131 8.21 126.421 7.846C125.727 7.482 124.956 7.3 124.107 7.3C122.789 7.3 121.81 7.742 121.169 8.626C120.545 9.51 120.233 10.758 120.233 12.37C120.233 13.982 120.545 15.23 121.169 16.114C121.81 16.998 122.789 17.44 124.107 17.44C124.956 17.44 125.727 17.258 126.421 16.894C127.131 16.53 127.703 16.0187 128.137 15.36C128.674 15.5333 128.943 15.906 128.943 16.478C128.943 16.998 128.717 17.4747 128.267 17.908C127.816 18.3413 127.218 18.688 126.473 18.948C125.745 19.1907 124.956 19.312 124.107 19.312ZM140.648 19.312C139.452 19.312 138.395 19.0347 137.476 18.48C136.557 17.9253 135.847 17.128 135.344 16.088C134.841 15.048 134.59 13.8347 134.59 12.448C134.59 11.044 134.841 9.81333 135.344 8.756C135.864 7.69867 136.575 6.884 137.476 6.312C138.395 5.72267 139.452 5.428 140.648 5.428C142.347 5.428 143.673 6.00867 144.626 7.17C145.597 8.314 146.082 9.874 146.082 11.85C146.082 12.3353 146.013 12.6647 145.874 12.838C145.753 13.0113 145.493 13.098 145.094 13.098H136.722C136.722 14.4673 137.069 15.5593 137.762 16.374C138.473 17.1887 139.417 17.596 140.596 17.596C141.463 17.596 142.243 17.4053 142.936 17.024C143.647 16.6427 144.21 16.14 144.626 15.516C145.146 15.7067 145.406 16.0967 145.406 16.686C145.406 17.154 145.172 17.5873 144.704 17.986C144.236 18.3847 143.629 18.7053 142.884 18.948C142.156 19.1907 141.411 19.312 140.648 19.312ZM143.95 11.356C143.915 9.952 143.638 8.89467 143.118 8.184C142.598 7.456 141.809 7.092 140.752 7.092C139.643 7.092 138.75 7.47333 138.074 8.236C137.398 8.99867 136.965 10.108 136.774 11.564L143.95 11.356ZM173.322 1.476C173.322 1.892 173.183 2.21267 172.906 2.438C172.646 2.66333 172.29 2.776 171.84 2.776H165.21C165.331 3.15733 165.409 3.556 165.444 3.972C165.496 4.37067 165.522 4.84733 165.522 5.402V8.964H171.97C172.039 9.172 172.074 9.39733 172.074 9.64C172.074 10.056 171.935 10.3767 171.658 10.602C171.398 10.8273 171.042 10.94 170.592 10.94H165.522V17.466C165.522 17.986 165.383 18.402 165.106 18.714C164.846 19.0087 164.473 19.156 163.988 19.156C163.745 19.156 163.494 19.1213 163.234 19.052V5.402C163.234 4.29267 163.199 3.46933 163.13 2.932C163.06 2.37733 162.904 1.84867 162.662 1.346L162.87 0.799999H173.218C173.287 1.008 173.322 1.23333 173.322 1.476ZM183.515 19.312C182.093 19.312 180.975 18.948 180.161 18.22C179.363 17.4747 178.965 16.478 178.965 15.23C178.965 13.9127 179.415 12.8553 180.317 12.058C181.218 11.2607 182.457 10.862 184.035 10.862C184.728 10.862 185.3 10.9313 185.751 11.07C186.219 11.2087 186.661 11.408 187.077 11.668V10.42C187.077 9.38 186.799 8.58267 186.245 8.028C185.69 7.456 184.884 7.17 183.827 7.17C183.029 7.17 182.327 7.33467 181.721 7.664C181.131 7.976 180.603 8.45267 180.135 9.094C179.563 8.886 179.277 8.48733 179.277 7.898C179.277 7.13533 179.736 6.53733 180.655 6.104C181.591 5.67067 182.683 5.454 183.931 5.454C185.647 5.454 186.947 5.896 187.831 6.78C188.715 7.64667 189.157 8.86 189.157 10.42V17.57C189.157 18.0553 189.027 18.4453 188.767 18.74C188.524 19.0173 188.177 19.156 187.727 19.156C187.519 19.156 187.285 19.1213 187.025 19.052V17.7C186.643 18.2547 186.175 18.662 185.621 18.922C185.066 19.182 184.364 19.312 183.515 19.312ZM183.853 17.648C184.841 17.648 185.621 17.414 186.193 16.946C186.782 16.478 187.077 15.8453 187.077 15.048V14.398C187.077 13.7913 186.843 13.3233 186.375 12.994C185.907 12.6473 185.222 12.474 184.321 12.474C183.281 12.474 182.483 12.708 181.929 13.176C181.374 13.644 181.097 14.32 181.097 15.204C181.097 16.0013 181.331 16.608 181.799 17.024C182.267 17.44 182.951 17.648 183.853 17.648ZM201.482 19.312C200.251 19.312 199.177 19.0347 198.258 18.48C197.339 17.908 196.637 17.102 196.152 16.062C195.667 15.0047 195.424 13.774 195.424 12.37C195.424 10.966 195.667 9.744 196.152 8.704C196.637 7.64667 197.339 6.84067 198.258 6.286C199.177 5.714 200.251 5.428 201.482 5.428C202.331 5.428 203.12 5.558 203.848 5.818C204.593 6.06067 205.191 6.39867 205.642 6.832C206.093 7.26533 206.318 7.742 206.318 8.262C206.318 8.834 206.049 9.20667 205.512 9.38C205.079 8.72133 204.507 8.21 203.796 7.846C203.103 7.482 202.331 7.3 201.482 7.3C200.165 7.3 199.185 7.742 198.544 8.626C197.92 9.51 197.608 10.758 197.608 12.37C197.608 13.982 197.92 15.23 198.544 16.114C199.185 16.998 200.165 17.44 201.482 17.44C202.331 17.44 203.103 17.258 203.796 16.894C204.507 16.53 205.079 16.0187 205.512 15.36C206.049 15.5333 206.318 15.906 206.318 16.478C206.318 16.998 206.093 17.4747 205.642 17.908C205.191 18.3413 204.593 18.688 203.848 18.948C203.12 19.1907 202.331 19.312 201.482 19.312ZM218.699 16.998C218.89 17.0847 219.037 17.206 219.141 17.362C219.245 17.518 219.297 17.7 219.297 17.908C219.297 18.3067 219.098 18.6273 218.699 18.87C218.301 19.0953 217.807 19.208 217.217 19.208C216.177 19.208 215.354 18.844 214.747 18.116C214.141 17.388 213.837 16.4 213.837 15.152V7.404H211.887C211.801 7.23067 211.757 7.04 211.757 6.832C211.757 6.48533 211.87 6.21667 212.095 6.026C212.321 5.83533 212.615 5.74 212.979 5.74H213.837V3.842C213.837 3.35667 213.959 2.97533 214.201 2.698C214.444 2.40333 214.791 2.256 215.241 2.256C215.501 2.256 215.744 2.29067 215.969 2.36V5.74H218.959C219.046 5.91333 219.089 6.104 219.089 6.312C219.089 6.65867 218.977 6.92733 218.751 7.118C218.526 7.30867 218.231 7.404 217.867 7.404H215.969V15.152C215.969 15.8453 216.091 16.374 216.333 16.738C216.593 17.0847 216.992 17.258 217.529 17.258C217.911 17.258 218.301 17.1713 218.699 16.998ZM230.195 19.312C228.999 19.312 227.95 19.0347 227.049 18.48C226.165 17.908 225.48 17.102 224.995 16.062C224.509 15.0047 224.267 13.774 224.267 12.37C224.267 10.966 224.509 9.744 224.995 8.704C225.48 7.64667 226.165 6.84067 227.049 6.286C227.95 5.714 228.999 5.428 230.195 5.428C231.391 5.428 232.431 5.714 233.315 6.286C234.216 6.84067 234.909 7.64667 235.395 8.704C235.88 9.744 236.123 10.966 236.123 12.37C236.123 13.774 235.88 15.0047 235.395 16.062C234.909 17.102 234.216 17.908 233.315 18.48C232.431 19.0347 231.391 19.312 230.195 19.312ZM230.195 17.44C231.339 17.44 232.249 16.9807 232.925 16.062C233.601 15.1433 233.939 13.9127 233.939 12.37C233.939 10.8273 233.601 9.59667 232.925 8.678C232.249 7.75933 231.339 7.3 230.195 7.3C229.051 7.3 228.141 7.75933 227.465 8.678C226.789 9.59667 226.451 10.8273 226.451 12.37C226.451 13.9127 226.789 15.1433 227.465 16.062C228.141 16.9807 229.051 17.44 230.195 17.44ZM243.489 19.156C243.229 19.156 242.986 19.1213 242.761 19.052V7.17C242.761 6.68467 242.882 6.30333 243.125 6.026C243.368 5.73133 243.714 5.584 244.165 5.584C244.425 5.584 244.668 5.61867 244.893 5.688V9.25C245.257 8.002 245.777 7.066 246.453 6.442C247.129 5.818 247.909 5.506 248.793 5.506C249.764 5.506 250.249 5.93933 250.249 6.806C250.249 7.30867 250.076 7.69 249.729 7.95C249.556 7.86333 249.296 7.82 248.949 7.82C247.632 7.82 246.626 8.40067 245.933 9.562C245.24 10.706 244.893 12.5693 244.893 15.152V17.57C244.893 18.0553 244.772 18.4453 244.529 18.74C244.286 19.0173 243.94 19.156 243.489 19.156ZM256.406 24.356C255.834 24.356 255.366 24.252 255.002 24.044C254.638 23.836 254.456 23.5413 254.456 23.16C254.456 22.7613 254.655 22.4927 255.054 22.354C255.47 22.5447 255.877 22.64 256.276 22.64C256.674 22.64 257.012 22.4927 257.29 22.198C257.567 21.9207 257.853 21.4267 258.148 20.716L259.318 17.804L254.768 6.728C254.698 6.58933 254.664 6.43333 254.664 6.26C254.664 6.03467 254.75 5.86133 254.924 5.74C255.097 5.60133 255.366 5.532 255.73 5.532C256.059 5.532 256.336 5.61867 256.562 5.792L260.358 15.204L263.764 6.78C263.937 6.34667 264.136 6.03467 264.362 5.844C264.604 5.636 264.908 5.532 265.272 5.532C265.67 5.532 265.991 5.67067 266.234 5.948L260.15 21.34C259.786 22.2933 259.283 23.03 258.642 23.55C258 24.0873 257.255 24.356 256.406 24.356Z" fill="#393838"/>
</svg>
